<?xml version="1.0" encoding="UTF-8" standalone="no"?>
<!DOCTYPE svg PUBLIC "-//W3C//DTD SVG 1.1//EN"
 "http://www.w3.org/Graphics/SVG/1.1/DTD/svg11.dtd">
<!-- Generated by graphviz version 8.0.5 (20230430.1635)
 -->
<!-- Title: gocallvis Pages: 1 -->
<svg width="413pt" height="407pt"
 viewBox="0.00 0.00 412.90 406.50" xmlns="http://www.w3.org/2000/svg" xmlns:xlink="http://www.w3.org/1999/xlink">
<g id="graph0" class="graph" transform="scale(1 1) rotate(0) translate(0 406.5)">
<title>gocallvis</title>
<polygon fill="lightgray" stroke="none" points="0,0 0,-406.5 412.9,-406.5 412.9,0 0,0"/>
<text text-anchor="middle" x="23" y="-7.2" font-family="Arial" font-size="14.00">main</text>
<g id="clust1" class="cluster">
<title>cluster_pmain</title>
<g id="a_clust1"><a xlink:href="/?f=main.main" xlink:title="package: main.main">
<polygon fill="lightyellow" stroke="black" stroke-width="0.8" points="8,-32.5 8,-398.5 404.9,-398.5 404.9,-32.5 8,-32.5"/>
<text text-anchor="middle" x="35.5" y="-379.3" font-family="Tahoma bold" font-size="16.00">main</text>
</a>
</g>
</g>
<g id="clust2" class="cluster">
<title>cluster_fmain.main</title>
<g id="a_clust2"><a xlink:href="/?f=main.main" xlink:title="main.main | defined in myprog.go:18">
<polygon fill="moccasin" stroke="black" stroke-width="0.5" points="16,-40.5 16,-363.5 151.7,-363.5 151.7,-40.5 16,-40.5"/>
<text text-anchor="middle" x="43.5" y="-344.3" font-family="Tahoma bold" font-size="16.00">main</text>
</a>
</g>
</g>
<g id="clust3" class="cluster">
<title>cluster_fmain.test_context</title>
<g id="a_clust3"><a xlink:href="/?f=main.main" xlink:title="main.test_context | defined in myprog.go:14">
<polygon fill="moccasin" stroke="black" stroke-width="0.5" points="208.7,-57.5 208.7,-136.5 396.9,-136.5 396.9,-57.5 208.7,-57.5"/>
<text text-anchor="middle" x="266.95" y="-117.3" font-family="Tahoma bold" font-size="16.00">test_context</text>
</a>
</g>
</g>
<g id="clust4" class="cluster">
<title>cluster_f(main.C).f</title>
<g id="a_clust4"><a xlink:href="/?f=main.main" xlink:title="(main.C).f | defined in myprog.go:9">
<polygon fill="moccasin" stroke="black" stroke-width="0.5" points="240.2,-155.5 240.2,-234.5 365.4,-234.5 365.4,-155.5 240.2,-155.5"/>
<text text-anchor="middle" x="266.57" y="-215.3" font-family="Tahoma bold" font-size="16.00">(C).f</text>
</a>
</g>
</g>
<g id="clust5" class="cluster">
<title>cluster_f(main.B).f</title>
<g id="a_clust5"><a xlink:href="/?f=main.main" xlink:title="(main.B).f | defined in myprog.go:12">
<polygon fill="moccasin" stroke="black" stroke-width="0.5" points="235.7,-242.5 235.7,-321.5 369.9,-321.5 369.9,-242.5 235.7,-242.5"/>
<text text-anchor="middle" x="262.07" y="-302.3" font-family="Tahoma bold" font-size="16.00">(B).f</text>
</a>
</g>
</g>
<!-- [18] main.main -->
<g id="node1" class="node">
<title>[18] main.main</title>
<path fill="honeydew" stroke="black" d="M131.7,-328.5C131.7,-328.5 36,-328.5 36,-328.5 30,-328.5 24,-322.5 24,-316.5 24,-316.5 24,-304.5 24,-304.5 24,-298.5 30,-292.5 36,-292.5 36,-292.5 131.7,-292.5 131.7,-292.5 137.7,-292.5 143.7,-298.5 143.7,-304.5 143.7,-304.5 143.7,-316.5 143.7,-316.5 143.7,-322.5 137.7,-328.5 131.7,-328.5"/>
<text text-anchor="middle" x="83.85" y="-305.82" font-family="Verdana" font-size="14.00">[18] main.main</text>
</g>
<!-- [20] test_context(t0) -->
<g id="node2" class="node">
<title>[20] test_context(t0)</title>
<g id="a_node2"><a xlink:title="&#10;at myprog.go:20: calling [main.test_context]">
<polygon fill="lightyellow" stroke="black" stroke-width="0.8" points="141.08,-84.5 26.63,-84.5 26.63,-48.5 141.08,-48.5 141.08,-84.5"/>
<text text-anchor="middle" x="83.85" y="-63" font-family="Tahoma bold" font-size="10.00">[20] test_context(t0)</text>
</a>
</g>
</g>
<!-- [14] main.test_context -->
<g id="node6" class="node">
<title>[14] main.test_context</title>
<path fill="honeydew" stroke="black" d="M376.9,-101.5C376.9,-101.5 228.7,-101.5 228.7,-101.5 222.7,-101.5 216.7,-95.5 216.7,-89.5 216.7,-89.5 216.7,-77.5 216.7,-77.5 216.7,-71.5 222.7,-65.5 228.7,-65.5 228.7,-65.5 376.9,-65.5 376.9,-65.5 382.9,-65.5 388.9,-71.5 388.9,-77.5 388.9,-77.5 388.9,-89.5 388.9,-89.5 388.9,-95.5 382.9,-101.5 376.9,-101.5"/>
<text text-anchor="middle" x="302.8" y="-78.83" font-family="Verdana" font-size="14.00">[14] main.test_context</text>
</g>
<!-- [20] test_context(t0)&#45;&gt;[14] main.test_context -->
<g id="edge1" class="edge">
<title>[20] test_context(t0)&#45;&gt;[14] main.test_context</title>
<g id="a_edge1"><a xlink:title="at myprog.go:20: calling [main.test_context]">
<path fill="none" stroke="black" d="M141,-70.9C160.75,-72.45 183.53,-74.23 205.63,-75.96"/>
<polygon fill="black" stroke="black" points="205.16,-79.52 215.4,-76.81 205.71,-72.54 205.16,-79.52"/>
</a>
</g>
</g>
<!-- [22] test_context(t3) -->
<g id="node3" class="node">
<title>[22] test_context(t3)</title>
<g id="a_node3"><a xlink:title="&#10;at myprog.go:22: calling [main.test_context]">
<polygon fill="lightyellow" stroke="black" stroke-width="0.8" points="141.08,-145.5 26.63,-145.5 26.63,-109.5 141.08,-109.5 141.08,-145.5"/>
<text text-anchor="middle" x="83.85" y="-124" font-family="Tahoma bold" font-size="10.00">[22] test_context(t3)</text>
</a>
</g>
</g>
<!-- [22] test_context(t3)&#45;&gt;[14] main.test_context -->
<g id="edge2" class="edge">
<title>[22] test_context(t3)&#45;&gt;[14] main.test_context</title>
<g id="a_edge2"><a xlink:title="at myprog.go:22: calling [main.test_context]">
<path fill="none" stroke="black" d="M141,-116.11C160.75,-112.11 183.53,-107.49 205.63,-103"/>
<polygon fill="black" stroke="black" points="206.3,-106.24 215.4,-100.82 204.91,-99.38 206.3,-106.24"/>
</a>
</g>
</g>
<!-- [20] invoke t1.f() -->
<g id="node4" class="node">
<title>[20] invoke t1.f()</title>
<g id="a_node4"><a xlink:title="&#10;at myprog.go:20: calling [(main.C).f]">
<polygon fill="lightyellow" stroke="black" stroke-width="0.8" points="129.83,-206.5 37.88,-206.5 37.88,-170.5 129.83,-170.5 129.83,-206.5"/>
<text text-anchor="middle" x="83.85" y="-185" font-family="Tahoma bold" font-size="10.00">[20] invoke t1.f()</text>
</a>
</g>
</g>
<!-- [9] (main.C).f -->
<g id="node7" class="node">
<title>[9] (main.C).f</title>
<path fill="honeydew" stroke="black" d="M345.4,-199.5C345.4,-199.5 260.2,-199.5 260.2,-199.5 254.2,-199.5 248.2,-193.5 248.2,-187.5 248.2,-187.5 248.2,-175.5 248.2,-175.5 248.2,-169.5 254.2,-163.5 260.2,-163.5 260.2,-163.5 345.4,-163.5 345.4,-163.5 351.4,-163.5 357.4,-169.5 357.4,-175.5 357.4,-175.5 357.4,-187.5 357.4,-187.5 357.4,-193.5 351.4,-199.5 345.4,-199.5"/>
<text text-anchor="middle" x="302.8" y="-176.82" font-family="Verdana" font-size="14.00">[9] (main.C).f</text>
</g>
<!-- [20] invoke t1.f()&#45;&gt;[9] (main.C).f -->
<g id="edge3" class="edge">
<title>[20] invoke t1.f()&#45;&gt;[9] (main.C).f</title>
<g id="a_edge3"><a xlink:title="at myprog.go:20: calling [(main.C).f]">
<path fill="none" stroke="black" stroke-dasharray="5,2" d="M129.8,-187.05C160.82,-186.05 202.55,-184.7 237.13,-183.59"/>
<polygon fill="black" stroke="black" points="237.21,-187.05 247.09,-183.23 236.98,-180.06 237.21,-187.05"/>
</a>
</g>
</g>
<!-- [22] invoke t4.f() -->
<g id="node5" class="node">
<title>[22] invoke t4.f()</title>
<g id="a_node5"><a xlink:title="&#10;at myprog.go:22: calling [(main.B).f]">
<polygon fill="lightyellow" stroke="black" stroke-width="0.8" points="129.83,-267.5 37.88,-267.5 37.88,-231.5 129.83,-231.5 129.83,-267.5"/>
<text text-anchor="middle" x="83.85" y="-246" font-family="Tahoma bold" font-size="10.00">[22] invoke t4.f()</text>
</a>
</g>
</g>
<!-- [12] (main.B).f -->
<g id="node8" class="node">
<title>[12] (main.B).f</title>
<path fill="honeydew" stroke="black" d="M349.9,-286.5C349.9,-286.5 255.7,-286.5 255.7,-286.5 249.7,-286.5 243.7,-280.5 243.7,-274.5 243.7,-274.5 243.7,-262.5 243.7,-262.5 243.7,-256.5 249.7,-250.5 255.7,-250.5 255.7,-250.5 349.9,-250.5 349.9,-250.5 355.9,-250.5 361.9,-256.5 361.9,-262.5 361.9,-262.5 361.9,-274.5 361.9,-274.5 361.9,-280.5 355.9,-286.5 349.9,-286.5"/>
<text text-anchor="middle" x="302.8" y="-263.82" font-family="Verdana" font-size="14.00">[12] (main.B).f</text>
</g>
<!-- [22] invoke t4.f()&#45;&gt;[12] (main.B).f -->
<g id="edge4" class="edge">
<title>[22] invoke t4.f()&#45;&gt;[12] (main.B).f</title>
<g id="a_edge4"><a xlink:title="at myprog.go:22: calling [(main.B).f]">
<path fill="none" stroke="black" stroke-dasharray="5,2" d="M129.8,-253.44C159.48,-256.04 198.95,-259.49 232.6,-262.44"/>
<polygon fill="black" stroke="black" points="232.03,-265.99 242.3,-263.38 232.64,-259.02 232.03,-265.99"/>
</a>
</g>
</g>
</g>
</svg>
