<?xml version="1.0" encoding="UTF-8" standalone="no"?>
<!DOCTYPE svg PUBLIC "-//W3C//DTD SVG 1.1//EN"
 "http://www.w3.org/Graphics/SVG/1.1/DTD/svg11.dtd">
<!-- Generated by graphviz version 8.0.5 (20230430.1635)
 -->
<!-- Title: gocallvis Pages: 1 -->
<svg width="576pt" height="224pt"
 viewBox="0.00 0.00 576.40 223.50" xmlns="http://www.w3.org/2000/svg" xmlns:xlink="http://www.w3.org/1999/xlink">
<g id="graph0" class="graph" transform="scale(1 1) rotate(0) translate(0 223.5)">
<title>gocallvis</title>
<polygon fill="lightgray" stroke="none" points="0,0 0,-223.5 576.4,-223.5 576.4,0 0,0"/>
<text text-anchor="middle" x="23" y="-7.2" font-family="Arial" font-size="14.00">main</text>
<g id="clust1" class="cluster">
<title>cluster_pmain</title>
<g id="a_clust1"><a xlink:href="/?f=main.main" xlink:title="package: main.main">
<polygon fill="lightyellow" stroke="black" stroke-width="0.8" points="8,-32.5 8,-215.5 568.4,-215.5 568.4,-32.5 8,-32.5"/>
<text text-anchor="middle" x="35.5" y="-196.3" font-family="Tahoma bold" font-size="16.00">main</text>
</a>
</g>
</g>
<g id="clust3" class="cluster">
<title>cluster_fmain.static_test_function_value</title>
<g id="a_clust3"><a xlink:href="/?f=main.main" xlink:title="main.static_test_function_value | defined in myprog.go:21">
<polygon fill="moccasin" stroke="black" stroke-width="0.5" points="271.7,-40.5 271.7,-119.5 560.4,-119.5 560.4,-40.5 271.7,-40.5"/>
<text text-anchor="middle" x="385.07" y="-100.3" font-family="Tahoma bold" font-size="16.00">static_test_function_value</text>
</a>
</g>
</g>
<g id="clust2" class="cluster">
<title>cluster_fmain.main</title>
<g id="a_clust2"><a xlink:href="/?f=main.main" xlink:title="main.main | defined in myprog.go:24">
<polygon fill="moccasin" stroke="black" stroke-width="0.5" points="16,-40.5 16,-180.5 214.7,-180.5 214.7,-40.5 16,-40.5"/>
<text text-anchor="middle" x="43.5" y="-161.3" font-family="Tahoma bold" font-size="16.00">main</text>
</a>
</g>
</g>
<!-- [24] main.main -->
<g id="node1" class="node">
<title>[24] main.main</title>
<path fill="honeydew" stroke="black" d="M163.2,-145.5C163.2,-145.5 67.5,-145.5 67.5,-145.5 61.5,-145.5 55.5,-139.5 55.5,-133.5 55.5,-133.5 55.5,-121.5 55.5,-121.5 55.5,-115.5 61.5,-109.5 67.5,-109.5 67.5,-109.5 163.2,-109.5 163.2,-109.5 169.2,-109.5 175.2,-115.5 175.2,-121.5 175.2,-121.5 175.2,-133.5 175.2,-133.5 175.2,-139.5 169.2,-145.5 163.2,-145.5"/>
<text text-anchor="middle" x="115.35" y="-122.83" font-family="Verdana" font-size="14.00">[24] main.main</text>
</g>
<!-- [29] static_test_function_value(t4) -->
<g id="node2" class="node">
<title>[29] static_test_function_value(t4)</title>
<g id="a_node2"><a xlink:title="&#10;at myprog.go:29: calling [main.static_test_function_value]">
<polygon fill="lightyellow" stroke="black" stroke-width="0.8" points="206.7,-84.5 24,-84.5 24,-48.5 206.7,-48.5 206.7,-84.5"/>
<text text-anchor="middle" x="115.35" y="-63" font-family="Tahoma bold" font-size="10.00">[29] static_test_function_value(t4)</text>
</a>
</g>
</g>
<!-- [21] main.static_test_function_value -->
<g id="node3" class="node">
<title>[21] main.static_test_function_value</title>
<path fill="honeydew" stroke="black" d="M540.4,-84.5C540.4,-84.5 291.7,-84.5 291.7,-84.5 285.7,-84.5 279.7,-78.5 279.7,-72.5 279.7,-72.5 279.7,-60.5 279.7,-60.5 279.7,-54.5 285.7,-48.5 291.7,-48.5 291.7,-48.5 540.4,-48.5 540.4,-48.5 546.4,-48.5 552.4,-54.5 552.4,-60.5 552.4,-60.5 552.4,-72.5 552.4,-72.5 552.4,-78.5 546.4,-84.5 540.4,-84.5"/>
<text text-anchor="middle" x="416.05" y="-61.83" font-family="Verdana" font-size="14.00">[21] main.static_test_function_value</text>
</g>
<!-- [29] static_test_function_value(t4)&#45;&gt;[21] main.static_test_function_value -->
<g id="edge1" class="edge">
<title>[29] static_test_function_value(t4)&#45;&gt;[21] main.static_test_function_value</title>
<g id="a_edge1"><a xlink:title="at myprog.go:29: calling [main.static_test_function_value]">
<path fill="none" stroke="black" d="M206.37,-66.5C226.07,-66.5 247.4,-66.5 268.65,-66.5"/>
<polygon fill="black" stroke="black" points="268.41,-70 278.41,-66.5 268.41,-63 268.41,-70"/>
</a>
</g>
</g>
</g>
</svg>
