<?xml version="1.0" encoding="UTF-8" standalone="no"?>
<!DOCTYPE svg PUBLIC "-//W3C//DTD SVG 1.1//EN"
 "http://www.w3.org/Graphics/SVG/1.1/DTD/svg11.dtd">
<!-- Generated by graphviz version 8.0.5 (20230430.1635)
 -->
<!-- Title: gocallvis Pages: 1 -->
<svg width="615pt" height="459pt"
 viewBox="0.00 0.00 614.60 458.50" xmlns="http://www.w3.org/2000/svg" xmlns:xlink="http://www.w3.org/1999/xlink">
<g id="graph0" class="graph" transform="scale(1 1) rotate(0) translate(0 458.5)">
<title>gocallvis</title>
<polygon fill="lightgray" stroke="none" points="0,0 0,-458.5 614.6,-458.5 614.6,0 0,0"/>
<text text-anchor="middle" x="23" y="-7.2" font-family="Arial" font-size="14.00">main</text>
<g id="clust1" class="cluster">
<title>cluster_pfmt</title>
<g id="a_clust1"><a xlink:href="/?f=fmt.Println" xlink:title="package: fmt.Println">
<polygon fill="#e0ffe1" stroke="black" stroke-width="0.8" points="445.9,-57.5 445.9,-179.5 606.6,-179.5 606.6,-57.5 445.9,-57.5"/>
<text text-anchor="middle" x="467.78" y="-160.3" font-family="Tahoma bold" font-size="16.00">fmt</text>
</a>
</g>
</g>
<g id="clust2" class="cluster">
<title>cluster_ffmt.Println</title>
<g id="a_clust2"><a xlink:href="/?f=fmt.Println" xlink:title="fmt.Println | defined in print.go:313">
<polygon fill="#adedad" stroke="black" stroke-width="1.5" points="453.9,-65.5 453.9,-144.5 598.6,-144.5 598.6,-65.5 453.9,-65.5"/>
<text text-anchor="middle" x="488.15" y="-125.3" font-family="Tahoma bold" font-size="16.00">Println</text>
</a>
</g>
</g>
<g id="clust3" class="cluster">
<title>cluster_pmain</title>
<g id="a_clust3"><a xlink:href="/?f=main.main" xlink:title="package: main.main">
<polygon fill="lightyellow" stroke="black" stroke-width="0.8" points="8,-32.5 8,-450.5 404.9,-450.5 404.9,-32.5 8,-32.5"/>
<text text-anchor="middle" x="35.5" y="-431.3" font-family="Tahoma bold" font-size="16.00">main</text>
</a>
</g>
</g>
<g id="clust4" class="cluster">
<title>cluster_fmain.main</title>
<g id="a_clust4"><a xlink:href="/?f=main.main" xlink:title="main.main | defined in myprog.go:24">
<polygon fill="moccasin" stroke="black" stroke-width="0.5" points="16,-80.5 16,-403.5 151.7,-403.5 151.7,-80.5 16,-80.5"/>
<text text-anchor="middle" x="43.5" y="-384.3" font-family="Tahoma bold" font-size="16.00">main</text>
</a>
</g>
</g>
<g id="clust7" class="cluster">
<title>cluster_f(main.B).f</title>
<g id="a_clust7"><a xlink:href="/?f=main.main" xlink:title="(main.B).f | defined in myprog.go:16">
<polygon fill="moccasin" stroke="black" stroke-width="0.5" points="235.7,-275.5 235.7,-415.5 369.9,-415.5 369.9,-275.5 235.7,-275.5"/>
<text text-anchor="middle" x="262.08" y="-396.3" font-family="Tahoma bold" font-size="16.00">(B).f</text>
</a>
</g>
</g>
<g id="clust5" class="cluster">
<title>cluster_fmain.test_context</title>
<g id="a_clust5"><a xlink:href="/?f=main.main" xlink:title="main.test_context | defined in myprog.go:20">
<polygon fill="moccasin" stroke="black" stroke-width="0.5" points="208.7,-188.5 208.7,-267.5 396.9,-267.5 396.9,-188.5 208.7,-188.5"/>
<text text-anchor="middle" x="266.95" y="-248.3" font-family="Tahoma bold" font-size="16.00">test_context</text>
</a>
</g>
</g>
<g id="clust6" class="cluster">
<title>cluster_f(main.C).f</title>
<g id="a_clust6"><a xlink:href="/?f=main.main" xlink:title="(main.C).f | defined in myprog.go:11">
<polygon fill="moccasin" stroke="black" stroke-width="0.5" points="235.7,-40.5 235.7,-180.5 369.9,-180.5 369.9,-40.5 235.7,-40.5"/>
<text text-anchor="middle" x="262.08" y="-161.3" font-family="Tahoma bold" font-size="16.00">(C).f</text>
</a>
</g>
</g>
<!-- [313] fmt.Println -->
<g id="node1" class="node">
<title>[313] fmt.Println</title>
<path fill="honeydew" stroke="black" d="M578.6,-109.5C578.6,-109.5 473.9,-109.5 473.9,-109.5 467.9,-109.5 461.9,-103.5 461.9,-97.5 461.9,-97.5 461.9,-85.5 461.9,-85.5 461.9,-79.5 467.9,-73.5 473.9,-73.5 473.9,-73.5 578.6,-73.5 578.6,-73.5 584.6,-73.5 590.6,-79.5 590.6,-85.5 590.6,-85.5 590.6,-97.5 590.6,-97.5 590.6,-103.5 584.6,-109.5 578.6,-109.5"/>
<text text-anchor="middle" x="526.25" y="-86.83" font-family="Verdana" font-size="14.00">[313] fmt.Println</text>
</g>
<!-- [24] main.main -->
<g id="node2" class="node">
<title>[24] main.main</title>
<path fill="honeydew" stroke="black" d="M131.7,-368.5C131.7,-368.5 36,-368.5 36,-368.5 30,-368.5 24,-362.5 24,-356.5 24,-356.5 24,-344.5 24,-344.5 24,-338.5 30,-332.5 36,-332.5 36,-332.5 131.7,-332.5 131.7,-332.5 137.7,-332.5 143.7,-338.5 143.7,-344.5 143.7,-344.5 143.7,-356.5 143.7,-356.5 143.7,-362.5 137.7,-368.5 131.7,-368.5"/>
<text text-anchor="middle" x="83.85" y="-345.82" font-family="Verdana" font-size="14.00">[24] main.main</text>
</g>
<!-- [31] test_context(t4) -->
<g id="node3" class="node">
<title>[31] test_context(t4)</title>
<g id="a_node3"><a xlink:title="&#10;at myprog.go:31: calling [main.test_context]">
<polygon fill="lightyellow" stroke="black" stroke-width="0.8" points="141.08,-246.5 26.63,-246.5 26.63,-210.5 141.08,-210.5 141.08,-246.5"/>
<text text-anchor="middle" x="83.85" y="-225" font-family="Tahoma bold" font-size="10.00">[31] test_context(t4)</text>
</a>
</g>
</g>
<!-- [20] main.test_context -->
<g id="node7" class="node">
<title>[20] main.test_context</title>
<path fill="honeydew" stroke="black" d="M376.9,-232.5C376.9,-232.5 228.7,-232.5 228.7,-232.5 222.7,-232.5 216.7,-226.5 216.7,-220.5 216.7,-220.5 216.7,-208.5 216.7,-208.5 216.7,-202.5 222.7,-196.5 228.7,-196.5 228.7,-196.5 376.9,-196.5 376.9,-196.5 382.9,-196.5 388.9,-202.5 388.9,-208.5 388.9,-208.5 388.9,-220.5 388.9,-220.5 388.9,-226.5 382.9,-232.5 376.9,-232.5"/>
<text text-anchor="middle" x="302.8" y="-209.82" font-family="Verdana" font-size="14.00">[20] main.test_context</text>
</g>
<!-- [31] test_context(t4)&#45;&gt;[20] main.test_context -->
<g id="edge1" class="edge">
<title>[31] test_context(t4)&#45;&gt;[20] main.test_context</title>
<g id="a_edge1"><a xlink:title="at myprog.go:31: calling [main.test_context]">
<path fill="none" stroke="black" d="M141,-224.88C160.75,-223.6 183.53,-222.13 205.63,-220.71"/>
<polygon fill="black" stroke="black" points="205.65,-224.15 215.4,-220.01 205.2,-217.16 205.65,-224.15"/>
</a>
</g>
</g>
<!-- [28] invoke t2.f(t1) -->
<g id="node4" class="node">
<title>[28] invoke t2.f(t1)</title>
<g id="a_node4"><a xlink:title="&#10;at myprog.go:28: calling [(main.B).f]">
<polygon fill="lightyellow" stroke="black" stroke-width="0.8" points="135.08,-124.5 32.63,-124.5 32.63,-88.5 135.08,-88.5 135.08,-124.5"/>
<text text-anchor="middle" x="83.85" y="-103" font-family="Tahoma bold" font-size="10.00">[28] invoke t2.f(t1)</text>
</a>
</g>
</g>
<!-- [11] (main.C).f -->
<g id="node8" class="node">
<title>[11] (main.C).f</title>
<path fill="honeydew" stroke="black" d="M349.9,-145.5C349.9,-145.5 255.7,-145.5 255.7,-145.5 249.7,-145.5 243.7,-139.5 243.7,-133.5 243.7,-133.5 243.7,-121.5 243.7,-121.5 243.7,-115.5 249.7,-109.5 255.7,-109.5 255.7,-109.5 349.9,-109.5 349.9,-109.5 355.9,-109.5 361.9,-115.5 361.9,-121.5 361.9,-121.5 361.9,-133.5 361.9,-133.5 361.9,-139.5 355.9,-145.5 349.9,-145.5"/>
<text text-anchor="middle" x="302.8" y="-122.83" font-family="Verdana" font-size="14.00">[11] (main.C).f</text>
</g>
<!-- [28] invoke t2.f(t1)&#45;&gt;[11] (main.C).f -->
<g id="edge3" class="edge">
<title>[28] invoke t2.f(t1)&#45;&gt;[11] (main.C).f</title>
<g id="a_edge3"><a xlink:title="at myprog.go:28: calling [(main.C).f]">
<path fill="none" stroke="black" stroke-dasharray="5,2" d="M134.9,-111.34C164.01,-114.16 201.14,-117.76 232.98,-120.84"/>
<polygon fill="black" stroke="black" points="232.27,-124.38 242.56,-121.86 232.94,-117.41 232.27,-124.38"/>
</a>
</g>
</g>
<!-- [16] (main.B).f -->
<g id="node10" class="node">
<title>[16] (main.B).f</title>
<path fill="honeydew" stroke="black" d="M349.9,-380.5C349.9,-380.5 255.7,-380.5 255.7,-380.5 249.7,-380.5 243.7,-374.5 243.7,-368.5 243.7,-368.5 243.7,-356.5 243.7,-356.5 243.7,-350.5 249.7,-344.5 255.7,-344.5 255.7,-344.5 349.9,-344.5 349.9,-344.5 355.9,-344.5 361.9,-350.5 361.9,-356.5 361.9,-356.5 361.9,-368.5 361.9,-368.5 361.9,-374.5 355.9,-380.5 349.9,-380.5"/>
<text text-anchor="middle" x="302.8" y="-357.82" font-family="Verdana" font-size="14.00">[16] (main.B).f</text>
</g>
<!-- [28] invoke t2.f(t1)&#45;&gt;[16] (main.B).f -->
<g id="edge5" class="edge">
<title>[28] invoke t2.f(t1)&#45;&gt;[16] (main.B).f</title>
<g id="a_edge5"><a xlink:title="at myprog.go:28: calling [(main.B).f]">
<path fill="none" stroke="black" stroke-dasharray="5,2" d="M134.95,-123.75C141.2,-127.53 147.03,-132.07 151.7,-137.5 181.14,-171.72 177.22,-300.14 208.7,-332.5 215.57,-339.56 224.11,-344.96 233.21,-349.09"/>
<polygon fill="black" stroke="black" points="231.66,-352.64 242.24,-353.1 234.25,-346.14 231.66,-352.64"/>
</a>
</g>
</g>
<!-- [31] invoke t5.f(t1) -->
<g id="node5" class="node">
<title>[31] invoke t5.f(t1)</title>
<g id="a_node5"><a xlink:title="&#10;at myprog.go:31: calling [(main.B).f]">
<polygon fill="lightyellow" stroke="black" stroke-width="0.8" points="135.08,-185.5 32.63,-185.5 32.63,-149.5 135.08,-149.5 135.08,-185.5"/>
<text text-anchor="middle" x="83.85" y="-164" font-family="Tahoma bold" font-size="10.00">[31] invoke t5.f(t1)</text>
</a>
</g>
</g>
<!-- [31] invoke t5.f(t1)&#45;&gt;[11] (main.C).f -->
<g id="edge6" class="edge">
<title>[31] invoke t5.f(t1)&#45;&gt;[11] (main.C).f</title>
<g id="a_edge6"><a xlink:title="at myprog.go:31: calling [(main.C).f]">
<path fill="none" stroke="black" stroke-dasharray="5,2" d="M134.9,-158.27C164.01,-152.9 201.14,-146.06 232.98,-140.19"/>
<polygon fill="black" stroke="black" points="233.36,-143.49 242.56,-138.24 232.09,-136.61 233.36,-143.49"/>
</a>
</g>
</g>
<!-- [31] invoke t5.f(t1)&#45;&gt;[16] (main.B).f -->
<g id="edge7" class="edge">
<title>[31] invoke t5.f(t1)&#45;&gt;[16] (main.B).f</title>
<g id="a_edge7"><a xlink:title="at myprog.go:31: calling [(main.B).f]">
<path fill="none" stroke="black" stroke-dasharray="5,2" d="M134.72,-185.47C140.93,-189.13 146.8,-193.45 151.7,-198.5 196.73,-244.99 160.91,-288.85 208.7,-332.5 215.88,-339.06 224.51,-344.19 233.58,-348.19"/>
<polygon fill="black" stroke="black" points="231.96,-351.71 242.55,-352.11 234.52,-345.2 231.96,-351.71"/>
</a>
</g>
</g>
<!-- [28] test_context(t0) -->
<g id="node6" class="node">
<title>[28] test_context(t0)</title>
<g id="a_node6"><a xlink:title="&#10;at myprog.go:28: calling [main.test_context]">
<polygon fill="lightyellow" stroke="black" stroke-width="0.8" points="141.08,-307.5 26.63,-307.5 26.63,-271.5 141.08,-271.5 141.08,-307.5"/>
<text text-anchor="middle" x="83.85" y="-286" font-family="Tahoma bold" font-size="10.00">[28] test_context(t0)</text>
</a>
</g>
</g>
<!-- [28] test_context(t0)&#45;&gt;[20] main.test_context -->
<g id="edge8" class="edge">
<title>[28] test_context(t0)&#45;&gt;[20] main.test_context</title>
<g id="a_edge8"><a xlink:title="at myprog.go:28: calling [main.test_context]">
<path fill="none" stroke="black" d="M136.81,-271.54C167.24,-261.02 205.9,-247.65 238.15,-236.5"/>
<polygon fill="black" stroke="black" points="239.07,-239.55 247.37,-232.97 236.78,-232.93 239.07,-239.55"/>
</a>
</g>
</g>
<!-- [12] fmt.Println(t3...) -->
<g id="node9" class="node">
<title>[12] fmt.Println(t3...)</title>
<g id="a_node9"><a xlink:title="&#10;at myprog.go:12: calling [fmt.Println]">
<polygon fill="lightyellow" stroke="black" stroke-width="0.8" points="358.15,-84.5 247.45,-84.5 247.45,-48.5 358.15,-48.5 358.15,-84.5"/>
<text text-anchor="middle" x="302.8" y="-63" font-family="Tahoma bold" font-size="10.00">[12] fmt.Println(t3...)</text>
</a>
</g>
</g>
<!-- [12] fmt.Println(t3...)&#45;&gt;[313] fmt.Println -->
<g id="edge2" class="edge">
<title>[12] fmt.Println(t3...)&#45;&gt;[313] fmt.Println</title>
<g id="a_edge2"><a xlink:title="at myprog.go:12: calling [fmt.Println]">
<path fill="none" stroke="black" d="M357.97,-72.62C385.92,-75.77 420.44,-79.67 450.85,-83.1"/>
<polygon fill="black" stroke="black" points="450.09,-86.65 460.42,-84.29 450.87,-79.69 450.09,-86.65"/>
</a>
</g>
</g>
<!-- [17] fmt.Println(t3...) -->
<g id="node11" class="node">
<title>[17] fmt.Println(t3...)</title>
<g id="a_node11"><a xlink:title="&#10;at myprog.go:17: calling [fmt.Println]">
<polygon fill="lightyellow" stroke="black" stroke-width="0.8" points="358.15,-319.5 247.45,-319.5 247.45,-283.5 358.15,-283.5 358.15,-319.5"/>
<text text-anchor="middle" x="302.8" y="-298" font-family="Tahoma bold" font-size="10.00">[17] fmt.Println(t3...)</text>
</a>
</g>
</g>
<!-- [17] fmt.Println(t3...)&#45;&gt;[313] fmt.Println -->
<g id="edge4" class="edge">
<title>[17] fmt.Println(t3...)&#45;&gt;[313] fmt.Println</title>
<g id="a_edge4"><a xlink:title="at myprog.go:17: calling [fmt.Println]">
<path fill="none" stroke="black" d="M357.9,-294.01C374.11,-289.87 391.2,-283.46 404.9,-273.5 459.9,-233.54 496.93,-160.16 514.16,-119.86"/>
<polygon fill="black" stroke="black" points="517.69,-121.47 518.3,-110.9 511.23,-118.79 517.69,-121.47"/>
</a>
</g>
</g>
</g>
</svg>
